<svg xmlns="http://www.w3.org/2000/svg" viewBox="0 0 254 698.4"><defs><style>.cls-1{fill:aqua;}.cls-2,.cls-3{fill:none;stroke:red;stroke-linecap:round;stroke-linejoin:round;}.cls-2{stroke-width:1.5px;}</style></defs><g id="Layer_2" data-name="Layer 2"><path class="cls-1" d="M319,225.5c-1-8-3-23-6-33s-4-21-5-25-3-9-5-10-9-2-17-6-23-9-26-10-11-5-12-6-6-7-7-8-5-4-5-4v-10c3-3,3-11,3-11,2-1,4-4,6-13s-3-6-3-6a66.12,66.12,0,0,1,1-11c1-5,1-5,1-7s0-5-2-7a5.51,5.51,0,0,1-2-5c0-2-1-9-9-14s-28-3-28-3c-4,0-9,3-12,5s-7,9-10,12-3,9-3,12,1,4,3,9,2,7,2,7c-3,0-4,1-4,3a18.54,18.54,0,0,0,2,7,15.49,15.49,0,0,1,2,8c0,4,7,5,7,5,0,6,3,18,3,21v4c-5,7-1,4-5,9s-15,8-21,11-18,8-23,9-7,3-9,8-8,23-9,30-3,21-4,25-2,13-3,15-2,8-2,11-2,10-2,11-2,5-3,7,0,4-1,6-3,12-3.63,18a84.9,84.9,0,0,1-2.37,15c-2,9-2,18-4,24s-4,21-4,28-1,17-1,18a14.86,14.86,0,0,1-1,6,7.74,7.74,0,0,0-1,3c0,1,2,2,2,2,0,3-1,12-1,14s1,4,4,12,6,8,9,10,12,5,13,5,2,0,2-1-1-2-2-3l-5-5c-2-2-3-5-4-6a3.67,3.67,0,0,1-1-3c0-1-1-7-1-9s1-2,2-2a7.58,7.58,0,0,1,4,2c1,1,2,9,3,10s4,4,5,4,1-1,1-2a17.59,17.59,0,0,0-1-6,57.55,57.55,0,0,1-2-10c0-1,1-6,1-8s-1-9-1-10,1-4,1-5,3-12,4-15,3-10,3-11a57.94,57.94,0,0,1,4-13,194.52,194.52,0,0,0,8-22c1-4,7-22,7-22v13c0,2-4,20-4,21s2,2,2,2-2,10-3,16-3,25-3,28-1,21-1,21a7.74,7.74,0,0,0,3,1c0,4-4,14-4,15s-5,16-6,21-4,28-4,32,3,27,3,32-5,26-5,27,1,5,1,7-1,4-1,5,2,10,2,11-1,6-1,7,2,6,2,7-1,4-1,6,1,7,1,8-1,10-1,13,1,39,1,42-1,10-1,11,1,6,1,8a79.8,79.8,0,0,1-3,16c-2,7-2,19-2,19-3,1-6,9-6,9s-1,7-2,8-13,12-21,16-19,4-22,4-7,2-7,6,1,6,14,8,30,1,43,1,47-1,47-1,1-7,0-12-2-15-3-18-2-9-1-10,2-5,0-8,0-5,1-7,3-11,3-15a13.89,13.89,0,0,0-2-7v-6c0-7,1-16,2.75-31.93S175,582.5,175,579.5s-1-5,0-8-1-5-1-9,1-12-1-14-1-7-1-7a12.38,12.38,0,0,0,2-3c1-2,1-7,1-7s4-3,5-11,2-14,2-14a87.39,87.39,0,0,0,6-13c2-6,10-24,13-32s8-31,8-31,8,21,8,24,1,22,1,31,7,23,8,36,6,27,6,28-1,6-1,9,2,12,2,16-1,17-1,26-1,16,0,32,3,9,3,30-4,16-4,25,4,9,4,9l-1,15a16.43,16.43,0,0,0-4,13c1,8,3,10,5,10s28-1,31-1,3-5,3-6,0-5-1-7-4-5-4-12,4-17,4-18-1-3-1-4,0-5,4-15,2-16,2-25,3-52,3-59-2-27-2-33-1-7-2-9-4-6-4-10,3-7,2-9-2-19,0-41,4-25,4-33,5-37,5-37c9-5,8-2,10-11s3-6,5-13,5-3,5-3c0-10,5-31,12-51s10-47,10-61S320,233.5,319,225.5Zm-42,90s-2-14-4-19a34.59,34.59,0,0,1-2-18,146.79,146.79,0,0,1,4-17s3,10,3,17,4,17,4,19S277,315.5,277,315.5Z" transform="translate(-67 -36.1)"/></g><g id="Layer_3" data-name="Layer 3"><g id="Layer_4" data-name="Layer 4"><path class="cls-2" d="M200.5,53s6-5.5,11,.5v15a2,2,0,0,1-2,2,2.15,2.15,0,0,1-2-2,3.49,3.49,0,0,1,1-2" transform="translate(-67 -36.1)"/><path class="cls-2" d="M210.16,52.17a5.32,5.32,0,0,0,1.34-3.51c0-2.16-1-4.16-4-4.16a10.16,10.16,0,0,1-.4,3.84" transform="translate(-67 -36.1)"/><path class="cls-2" d="M200.5,45.5a6.67,6.67,0,0,1,.36-.83c.45-.89,1.33-2.17,2.64-2.17,2,0,4,2,4,2" transform="translate(-67 -36.1)"/><path class="cls-2" d="M204.5,58.5c-2,2-3,3-3,6s3,4,4,4a13.37,13.37,0,0,0,2-.18" transform="translate(-67 -36.1)"/><path class="cls-2" d="M206.5,54.5c-3,0-8,3-8,5a3.49,3.49,0,0,0,3.07,3.74" transform="translate(-67 -36.1)"/><path class="cls-2" d="M204,47.45c-4.5,1-7.5,3-7.5,6s.4,3.52,2.2,5.26" transform="translate(-67 -36.1)"/><path class="cls-2" d="M194.5,64.5c0-2,2.42-5.44,3.71-6.22" transform="translate(-67 -36.1)"/><path class="cls-2" d="M205.6,63.5c2.9-4,5.9-1.12,5.9-1.12" transform="translate(-67 -36.1)"/><path class="cls-2" d="M207.5,57.5c2-2,4,.78,4,.78" transform="translate(-67 -36.1)"/><path class="cls-2" d="M196.5,51.77A4.91,4.91,0,0,1,195,48a3.54,3.54,0,0,1,3.21-3.77c2.79-.23,2.53.68,2.53.68" transform="translate(-67 -36.1)"/><path class="cls-2" d="M191,62c-2-1-3.62-2-1.81-7.5s6-4.93,6-4.93" transform="translate(-67 -36.1)"/><path class="cls-2" d="M189,69c-2-1-3-2-3-5a5.53,5.53,0,0,1,2.53-4.5" transform="translate(-67 -36.1)"/><path class="cls-2" d="M195.18,69.87C192,70,191,67,191,65a18.54,18.54,0,0,1,2-7" transform="translate(-67 -36.1)"/><path class="cls-2" d="M192,76c-3-2-3-4-3-5s1.47-3.55,2.23-4.28" transform="translate(-67 -36.1)"/><path class="cls-2" d="M202.5,71c-.5,2-1.5,4-4.5,3s-3-4-2-6a12.38,12.38,0,0,1,2-3" transform="translate(-67 -36.1)"/><path class="cls-2" d="M199,71c0-2,2.87-4.82,2.87-4.82" transform="translate(-67 -36.1)"/><path class="cls-2" d="M205,74a10,10,0,0,0,4,1" transform="translate(-67 -36.1)"/><path class="cls-2" d="M192.72,74c-.72,2-.72,4,1.28,5s3,0,3,0" transform="translate(-67 -36.1)"/><path class="cls-2" d="M197,77c0,1,0,5,4,5s4-3,4-3" transform="translate(-67 -36.1)"/><path class="cls-2" d="M202.94,77A10.53,10.53,0,0,0,209,79.09a2.64,2.64,0,0,0,2.5-1.6V72.4s-.58-1.8-1-2.1" transform="translate(-67 -36.1)"/></g><g id="Layer_5" data-name="Layer 5"><path class="cls-2" d="M223,53.09s-6-5.5-11,.5v15a2,2,0,0,0,2,2,2.15,2.15,0,0,0,2-2,3.49,3.49,0,0,0-1-2" transform="translate(-67 -36.1)"/><path class="cls-2" d="M213.34,52.26A5.32,5.32,0,0,1,212,48.75c0-2.16,1-4.16,4-4.16a10.16,10.16,0,0,0,.4,3.84" transform="translate(-67 -36.1)"/><path class="cls-2" d="M223,45.59a6.67,6.67,0,0,0-.36-.83c-.45-.89-1.33-2.17-2.64-2.17-2,0-4,2-4,2" transform="translate(-67 -36.1)"/><path class="cls-2" d="M219,58.59c2,2,3,3,3,6s-3,4-4,4a13.37,13.37,0,0,1-2-.18" transform="translate(-67 -36.1)"/><path class="cls-2" d="M217,54.59c3,0,8,3,8,5a3.49,3.49,0,0,1-3.07,3.74" transform="translate(-67 -36.1)"/><path class="cls-2" d="M219.5,47.54c4.5,1.05,7.5,3.05,7.5,6.05s-.4,3.52-2.2,5.26" transform="translate(-67 -36.1)"/><path class="cls-2" d="M229,64.59c0-2-2.42-5.44-3.71-6.22" transform="translate(-67 -36.1)"/><path class="cls-2" d="M217.9,63.59c-2.9-4-5.9-1.12-5.9-1.12" transform="translate(-67 -36.1)"/><path class="cls-2" d="M216,57.59c-2-2-4,.78-4,.78" transform="translate(-67 -36.1)"/><path class="cls-2" d="M227,51.86a4.91,4.91,0,0,0,1.5-3.77,3.54,3.54,0,0,0-3.21-3.77c-2.79-.23-2.53.69-2.53.69" transform="translate(-67 -36.1)"/><path class="cls-2" d="M232.5,62.09c2-1,3.62-2,1.81-7.5s-6-4.93-6-4.93" transform="translate(-67 -36.1)"/><path class="cls-2" d="M234.5,69.09c2-1,3-2,3-5a5.53,5.53,0,0,0-2.53-4.5" transform="translate(-67 -36.1)"/><path class="cls-2" d="M228.32,70c3.18.13,4.18-2.87,4.18-4.87a18.54,18.54,0,0,0-2-7" transform="translate(-67 -36.1)"/><path class="cls-2" d="M231.5,76.09c3-2,3-4,3-5s-1.47-3.55-2.23-4.28" transform="translate(-67 -36.1)"/><path class="cls-2" d="M221,71.05c.5,2,1.5,4,4.5,3s3-4,2-6a12.38,12.38,0,0,0-2-3" transform="translate(-67 -36.1)"/><path class="cls-2" d="M224.5,71.09c0-2-2.87-4.82-2.87-4.82" transform="translate(-67 -36.1)"/><path class="cls-2" d="M218.5,74.09a10,10,0,0,1-4,1" transform="translate(-67 -36.1)"/><path class="cls-2" d="M230.78,74.09c.72,2,.72,4-1.28,5s-3,0-3,0" transform="translate(-67 -36.1)"/><path class="cls-2" d="M226.5,77.09c0,1,0,5-4,5s-4-3-4-3" transform="translate(-67 -36.1)"/><path class="cls-2" d="M220.56,77.09a10.53,10.53,0,0,1-6.06,2.09,2.64,2.64,0,0,1-2.5-1.6V72.49s.58-1.8,1-2.1" transform="translate(-67 -36.1)"/></g></g><g id="Layer_7" data-name="Layer 7"><path class="cls-3" d="M228.73,222.5a13.49,13.49,0,0,1-4.85-1.67c-3.52-1.84-4.52-4.52-5.36-5.86a41.38,41.38,0,0,1-2.17-5,9,9,0,0,1,2.34-3.35,9.85,9.85,0,0,1,5.69-1.67,12.14,12.14,0,0,1,4.85,1.17c1.17.5,1.66,1,1.75,1.77a20.39,20.39,0,0,1-.07,6.1A73.9,73.9,0,0,1,228.73,222.5Z" transform="translate(-67 -36.1)"/><path class="cls-3" d="M236.76,209.62" transform="translate(-67 -36.1)"/><path class="cls-3" d="M228.73,222.5s4-1.17,5.19-2.84,2.71-3.6,3-5.69c.15-1.08.33-4.35-.17-4.35a3.24,3.24,0,0,1-3.68-.17,12.24,12.24,0,0,1-2.26-2.12" transform="translate(-67 -36.1)"/><path class="cls-3" d="M237.48,200.74a27.21,27.21,0,0,1,.57,4.16c0,1.1.33,3.45-.91,4.47" transform="translate(-67 -36.1)"/><path class="cls-3" d="M233.27,201.93s1.48,2.33,1.65,2.5a1.65,1.65,0,0,1,1.51-.17c.83.34,1.63,1.27,1.57,3.48" transform="translate(-67 -36.1)"/><path class="cls-3" d="M225.38,196.23l-4.51-2.51h0a3.52,3.52,0,0,0-1.66,1.17,5.06,5.06,0,0,0-.5,2l1.67.5" transform="translate(-67 -36.1)"/><path class="cls-3" d="M218.52,199.38c-.83-1.37-.5-4.82-.5-4.82a1.16,1.16,0,0,0-2,0,7.08,7.08,0,0,0-.33,2.34l-1.34-1.17a2,2,0,0,0-1.84.83,10.94,10.94,0,0,1,3.79,4.81" transform="translate(-67 -36.1)"/><path class="cls-3" d="M235.93,198.24l2.67-.5s.17-.2.67.48a1.6,1.6,0,0,1,.17,1.69l-.33.67s-4,0-5.19.84a8.31,8.31,0,0,0-3.1,4.23c-.1.45-.31,1.24-.31,1.24l-3.84-1.68a30.45,30.45,0,0,1,.56-3.29,8.69,8.69,0,0,1,1.67-3,7.81,7.81,0,0,1,1.5-.51,9.17,9.17,0,0,0,2.85.34c.33,0,2.68-.5,2.68-.5" transform="translate(-67 -36.1)"/><path class="cls-3" d="M230.74,191" transform="translate(-67 -36.1)"/><path class="cls-3" d="M214.62,213.84" transform="translate(-67 -36.1)"/><path class="cls-3" d="M216.63,209.32a12.18,12.18,0,0,1-1.12-5.56c.17-3,3-4.69,3.68-4.52a2.59,2.59,0,0,1,1.17-1.84l3,.84" transform="translate(-67 -36.1)"/><path class="cls-3" d="M226.67,205.21" transform="translate(-67 -36.1)"/><path class="cls-3" d="M235.93,198.24a6.34,6.34,0,0,0-1.68-1.84s1.17-.84,2-1.51.5-1.17.25-1.54a.88.88,0,0,0-.92-.47c-.5,0-3.34,2.51-3.34,2.51s-1-.16-1.09-.35a12.76,12.76,0,0,1,.25-2.63c.17-1.14-.17-1.2-.67-1.37s-.84.17-1.34,1a7.24,7.24,0,0,0-.33,3,5.87,5.87,0,0,0-1.18.17,9.1,9.1,0,0,0-1.17-2,1.34,1.34,0,0,0-1.84-.34c-.67.5-.67.67-.16,1.17a15.28,15.28,0,0,1,1.33,1.84,6.11,6.11,0,0,0-2.67,2.35,12.61,12.61,0,0,0-1.17,4,12.82,12.82,0,0,0,.22,2.78" transform="translate(-67 -36.1)"/></g></svg>